<svg width="190" height="190" viewBox="0 0 190 190" fill="none" xmlns="http://www.w3.org/2000/svg">
<path d="M142.5 102.917C138.716 125.345 118.893 142.096 95.4038 142.096C69.2075 142.096 47.9038 120.793 47.9038 94.5963C47.9038 71.1075 64.6554 51.2842 87.0833 47.5V15.8333C47.1358 19.8233 16.2371 53.6196 16.2371 94.5963C16.2371 138.249 51.7513 173.763 95.4038 173.763C136.38 173.763 170.177 142.864 174.167 102.917H142.5Z" fill="#2E4BB7"/>
<g clip-path="url(#clip0_62_652)">
<path d="M130 70.375C130 72.4844 128.324 74.4297 125.5 76C122.09 77.8867 117.004 79.2227 111.168 79.6211C110.734 79.4102 110.301 79.2109 109.844 79.0352C105.227 77.1016 99.0859 76 92.5 76C91.5273 76 90.5781 76.0234 89.6289 76.0703L89.5 76C86.6758 74.4297 85 72.4844 85 70.375C85 65.1953 95.0781 61 107.5 61C119.922 61 130 65.1953 130 70.375ZM88.832 79.8789C90.0273 79.7969 91.2578 79.75 92.5 79.75C99.7891 79.75 106.258 81.1914 110.371 83.4297C113.277 85.0117 115 86.9805 115 89.125C115 89.5938 114.918 90.0508 114.754 90.4961C114.215 92.043 112.762 93.4609 110.652 94.6562C110.641 94.668 110.617 94.668 110.605 94.6797C110.57 94.7031 110.535 94.7148 110.5 94.7383C106.398 97.0117 99.8594 98.4883 92.5 98.4883C85.5156 98.4883 79.2695 97.1641 75.1328 95.0781C74.9102 94.9727 74.6992 94.8555 74.4883 94.7383C71.6758 93.1797 70 91.2344 70 89.125C70 85.0469 76.2578 81.5664 85 80.2891C86.2305 80.1133 87.5078 79.9727 88.832 79.8789ZM118.75 89.125C118.75 86.5586 117.508 84.4492 115.926 82.8672C119.242 82.3516 122.277 81.5312 124.855 80.4648C126.766 79.668 128.547 78.6836 130 77.4766V81.625C130 83.8867 128.066 85.9727 124.867 87.5898C123.156 88.457 121.07 89.1953 118.727 89.7578C118.738 89.5469 118.75 89.3477 118.75 89.1367V89.125ZM115 100.375C115 102.484 113.324 104.43 110.5 106C110.289 106.117 110.078 106.223 109.855 106.34C105.73 108.426 99.4844 109.75 92.5 109.75C85.1406 109.75 78.6016 108.273 74.5 106C71.6758 104.43 70 102.484 70 100.375V96.2266C71.4648 97.4336 73.2344 98.418 75.1445 99.2148C79.7734 101.148 85.9141 102.25 92.5 102.25C99.0859 102.25 105.227 101.148 109.855 99.2148C110.77 98.8398 111.648 98.4062 112.48 97.9375C113.195 97.5391 113.863 97.0938 114.496 96.625C114.672 96.4961 114.836 96.3555 115 96.2266V96.625V97.293V100.375ZM118.75 100.375V96.625V93.5898C120.977 93.0977 123.027 92.4766 124.855 91.7148C126.766 90.918 128.547 89.9336 130 88.7266V92.875C130 94.1055 129.414 95.3359 128.254 96.4961C126.344 98.4062 122.98 99.9766 118.727 100.996C118.738 100.797 118.75 100.586 118.75 100.375ZM92.5 113.5C99.0859 113.5 105.227 112.398 109.855 110.465C111.766 109.668 113.547 108.684 115 107.477V111.625C115 116.805 104.922 121 92.5 121C80.0781 121 70 116.805 70 111.625V107.477C71.4648 108.684 73.2344 109.668 75.1445 110.465C79.7734 112.398 85.9141 113.5 92.5 113.5Z" fill="#2E4BB7"/>
</g>
<defs>
<clipPath id="clip0_62_652">
<rect width="60" height="60" fill="white" transform="translate(70 61)"/>
</clipPath>
</defs>
</svg>
