<svg width="800" height="800" viewBox="0 0 800 800" fill="none" xmlns="http://www.w3.org/2000/svg">
<path d="M656.416 412.8C798.944 495.088 799.696 628.512 658.096 710.816C516.496 793.12 286.128 793.104 143.6 710.816C1.07199 628.528 0.303997 495.04 141.904 412.8C283.504 330.56 513.872 330.448 656.416 412.8Z" fill="#F0F0F0"/>
<path d="M348.8 374.688L332.8 365.456C331.097 364.473 329.166 363.956 327.2 363.956C325.234 363.956 323.303 364.473 321.6 365.456L213.28 428C191.184 424.72 166.88 428 149.6 438.048C132.32 448.096 126.72 462.048 132.288 474.752L61.04 515.888C60.3088 516.309 59.7015 516.915 59.2793 517.645C58.857 518.376 58.6346 519.204 58.6346 520.048C58.6346 520.892 58.857 521.72 59.2793 522.451C59.7015 523.181 60.3088 523.787 61.04 524.208L77.04 533.424C78.7426 534.407 80.674 534.925 82.64 534.925C84.606 534.925 86.5374 534.407 88.24 533.424L154.624 495.104C180.88 507.664 219.728 506.848 244.224 492.64C268.72 478.432 269.952 456.112 248.464 440.96L348.8 382.992C349.527 382.57 350.131 381.964 350.551 381.236C350.971 380.507 351.191 379.681 351.191 378.84C351.191 377.999 350.971 377.173 350.551 376.444C350.131 375.716 349.527 375.11 348.8 374.688Z" fill="#E0E0E0"/>
<path d="M480.816 432.784C506.912 447.856 507.056 472.304 481.12 487.376C455.184 502.448 412.976 502.448 386.864 487.376C360.752 472.304 360.624 447.856 386.56 432.784C412.496 417.712 454.704 417.712 480.816 432.784Z" fill="#E1E1E1"/>
<path d="M673.776 514.816C699.888 529.888 700.016 554.32 674.08 569.408C648.144 584.496 605.952 584.48 579.84 569.408C553.728 554.336 553.584 529.888 579.52 514.816C605.456 499.744 647.664 499.728 673.776 514.816Z" fill="#E1E1E1"/>
<path d="M306.96 625.36C333.072 640.432 333.216 664.88 307.264 679.952C281.312 695.024 239.136 695.024 213.024 679.952C186.912 664.88 186.768 640.432 212.72 625.36C238.672 610.288 280.848 610.288 306.96 625.36Z" fill="#E1E1E1"/>
<path d="M400.608 721.392C389.136 709.68 382.4 674.736 393.584 665.392H450.544C461.744 674.72 454.992 709.584 443.536 721.392L443.216 721.712L442.816 722.096C442.496 722.416 442.144 722.72 441.792 723.024L441.504 723.248C441.232 723.456 440.944 723.68 440.64 723.888C440.336 724.096 439.648 724.56 439.152 724.848C429.712 730.288 414.416 730.288 404.976 724.848C404.464 724.544 403.952 724.224 403.472 723.888C402.992 723.552 402.928 723.488 402.672 723.264L402.336 723.008C401.968 722.72 401.648 722.416 401.328 722.128L400.88 721.664L400.608 721.392Z" fill="#37474F"/>
<path d="M445.536 661.712C458.544 669.216 458.544 681.392 445.536 688.912C432.528 696.432 411.472 696.416 398.48 688.912C385.488 681.408 385.488 669.248 398.48 661.712C411.472 654.176 432.608 654.208 445.536 661.712Z" fill="#455A64"/>
<path d="M439.264 665.328C448.864 670.832 448.864 679.728 439.264 685.328C429.664 690.928 414.256 690.832 404.704 685.328C395.152 679.824 395.104 670.928 404.704 665.328C414.304 659.728 429.744 659.808 439.264 665.328Z" fill="#2E353A"/>
<path d="M404.8 674.8C414.4 669.296 429.808 669.296 439.36 674.8C441.667 676.046 443.629 677.843 445.072 680.032C443.621 682.222 441.647 684.015 439.328 685.248C429.728 690.752 414.32 690.752 404.768 685.248C402.45 684.011 400.485 682.205 399.056 680C400.512 677.819 402.485 676.032 404.8 674.8Z" fill="#EBEBEB"/>
<path d="M412.304 651.504C414 648.96 416.512 647.008 418.048 644.352C421.248 638.784 417.408 633.344 419.024 627.68C419.445 626.46 420.116 625.341 420.995 624.396C421.874 623.451 422.941 622.7 424.128 622.192C426.509 621.214 429.012 620.562 431.568 620.256C432.935 620.112 434.266 619.733 435.504 619.136C436.976 618.304 437.424 616.848 438.352 615.568C439.412 614.164 440.619 612.877 441.952 611.728C444.533 609.105 448.033 607.59 451.712 607.504C459.456 607.856 459.248 614.528 457.04 619.568C454.832 624.608 454.224 626.24 459.056 631.568C463.888 636.896 463.856 643.312 458.144 646.944C452.432 650.576 448.544 651.072 450.896 658.048C452.928 664.304 454.192 669.632 448.416 676.32C446.606 678.602 444.292 680.433 441.654 681.669C439.016 682.904 436.128 683.511 433.216 683.44C421.664 682.96 412.256 673.6 410.336 662.48C409.643 658.875 410.262 655.141 412.08 651.952L412.304 651.504Z" fill="#2E4BB7"/>
<path opacity="0.3" d="M412.304 651.504C414 648.96 416.512 647.008 418.048 644.352C421.248 638.784 417.408 633.344 419.024 627.68C419.445 626.46 420.116 625.341 420.995 624.396C421.874 623.451 422.941 622.7 424.128 622.192C426.509 621.214 429.012 620.562 431.568 620.256C432.935 620.112 434.266 619.733 435.504 619.136C436.976 618.304 437.424 616.848 438.352 615.568C439.412 614.164 440.619 612.877 441.952 611.728C444.533 609.105 448.033 607.59 451.712 607.504C459.456 607.856 459.248 614.528 457.04 619.568C454.832 624.608 454.224 626.24 459.056 631.568C463.888 636.896 463.856 643.312 458.144 646.944C452.432 650.576 448.544 651.072 450.896 658.048C452.928 664.304 454.192 669.632 448.416 676.32C446.606 678.602 444.292 680.433 441.654 681.669C439.016 682.904 436.128 683.511 433.216 683.44C421.664 682.96 412.256 673.6 410.336 662.48C409.643 658.875 410.262 655.141 412.08 651.952L412.304 651.504Z" fill="#2E4BB7"/>
<path opacity="0.3" d="M412.304 651.504C414 648.96 416.512 647.008 418.048 644.352C421.248 638.784 417.408 633.344 419.024 627.68C419.445 626.46 420.116 625.341 420.995 624.396C421.874 623.451 422.941 622.7 424.128 622.192C426.509 621.214 429.012 620.562 431.568 620.256C432.935 620.112 434.266 619.733 435.504 619.136C436.976 618.304 437.424 616.848 438.352 615.568C439.412 614.164 440.619 612.877 441.952 611.728C444.533 609.105 448.033 607.59 451.712 607.504C459.456 607.856 459.248 614.528 457.04 619.568C454.832 624.608 454.224 626.24 459.056 631.568C463.888 636.896 463.856 643.312 458.144 646.944C452.432 650.576 448.544 651.072 450.896 658.048C452.928 664.304 454.192 669.632 448.416 676.32C446.606 678.602 444.292 680.433 441.654 681.669C439.016 682.904 436.128 683.511 433.216 683.44C421.664 682.96 412.256 673.6 410.336 662.48C409.643 658.875 410.262 655.141 412.08 651.952L412.304 651.504Z" fill="black"/>
<path d="M451.776 637.728C451.738 637.583 451.645 637.458 451.517 637.38C451.388 637.302 451.234 637.278 451.088 637.312C444.839 638.951 438.779 641.241 433.008 644.144C436.331 635.264 441.147 627.017 447.248 619.76C447.302 619.706 447.344 619.643 447.373 619.573C447.402 619.503 447.417 619.428 447.417 619.352C447.417 619.276 447.402 619.201 447.373 619.131C447.344 619.061 447.302 618.998 447.248 618.944C447.139 618.844 446.996 618.788 446.848 618.788C446.7 618.788 446.557 618.844 446.448 618.944C441.351 624.966 437.168 631.705 434.032 638.944C432.488 635.545 430.526 632.353 428.192 629.44C428.138 629.386 428.075 629.344 428.005 629.315C427.935 629.286 427.86 629.271 427.784 629.271C427.708 629.271 427.633 629.286 427.563 629.315C427.493 629.344 427.429 629.386 427.376 629.44C427.323 629.492 427.281 629.554 427.252 629.623C427.223 629.692 427.208 629.765 427.208 629.84C427.208 629.914 427.223 629.988 427.252 630.057C427.281 630.126 427.323 630.188 427.376 630.24C429.859 633.344 431.904 636.773 433.456 640.432C432.8 641.952 432.112 643.552 431.52 645.232C431.425 645.344 431.374 645.486 431.376 645.632C427.184 657.016 425.102 669.069 425.232 681.2C425.23 681.274 425.242 681.347 425.268 681.416C425.295 681.484 425.334 681.547 425.385 681.601C425.435 681.654 425.496 681.697 425.563 681.727C425.63 681.757 425.702 681.774 425.776 681.776H425.968C426.083 681.739 426.184 681.666 426.256 681.569C426.328 681.471 426.367 681.353 426.368 681.232C426.244 669.226 428.309 657.297 432.464 646.032C439.36 641.776 451.344 638.624 451.456 638.576C451.601 638.538 451.726 638.445 451.804 638.317C451.882 638.188 451.906 638.034 451.872 637.888C451.872 637.888 451.792 637.744 451.776 637.728Z" fill="white"/>
<path d="M422.96 684.528C422.64 684.72 419.984 685.648 419.6 685.76C415.344 686.992 409.792 686.336 404.768 685.584C401.472 685.088 397.008 684.4 394.56 681.936C393.92 681.357 393.466 680.601 393.255 679.763C393.044 678.926 393.086 678.045 393.376 677.232C394.144 675.632 396.32 674.56 396.496 672.736C392.896 671.536 388.64 672.48 385.424 670.48C383.095 668.893 381.339 666.599 380.416 663.936C379.642 662.26 379.556 660.347 380.176 658.608C381.04 656.816 383.376 656.384 385.344 656.08C385.87 656.042 386.382 655.895 386.848 655.648C387.078 655.513 387.264 655.314 387.384 655.076C387.503 654.837 387.55 654.569 387.52 654.304C387.36 653.664 386.688 653.344 386.064 653.152C384.72 652.72 383.392 652.464 382.064 651.968C380.747 651.529 379.618 650.654 378.864 649.488C378.181 647.986 377.969 646.313 378.256 644.688C378.485 641.889 378.875 639.106 379.424 636.352C379.808 633.964 380.032 631.554 380.096 629.136C387.066 627.822 394.233 627.986 401.136 629.616C404.944 630.4 410.464 632.176 412.128 636.144C412.561 637.28 412.703 638.507 412.544 639.712C412.459 640.253 412.336 640.788 412.176 641.312C412.096 641.632 411.76 642.912 412.576 642.352C412.748 642.197 412.885 642.005 412.976 641.792L415.648 636.464C415.856 635.907 416.223 635.423 416.704 635.072C417.776 634.4 420.704 634.928 423.68 637.328C425.633 639.051 426.956 641.376 427.44 643.936C428.069 648.003 427.911 652.153 426.976 656.16L429.568 652.544C432.624 648.32 434.496 656.048 434.624 657.712C434.917 662.909 434.093 668.108 432.208 672.96C430.348 677.652 427.128 681.681 422.96 684.528Z" fill="#2E4BB7"/>
<path d="M414.864 664.56C415.121 657.728 416.88 651.036 420.016 644.96V644.832C420.046 644.771 420.063 644.705 420.067 644.637C420.072 644.57 420.062 644.502 420.04 644.438C420.017 644.374 419.983 644.315 419.937 644.264C419.892 644.214 419.837 644.173 419.776 644.144C419.651 644.083 419.506 644.074 419.375 644.119C419.243 644.164 419.134 644.259 419.072 644.384V644.528C416.147 650.249 414.38 656.491 413.872 662.896C405.584 648.944 393.44 635.696 387.056 632.256C386.926 632.187 386.775 632.172 386.634 632.214C386.494 632.256 386.375 632.352 386.304 632.48C386.267 632.541 386.242 632.608 386.232 632.678C386.222 632.749 386.226 632.82 386.244 632.889C386.261 632.958 386.293 633.022 386.336 633.078C386.38 633.134 386.434 633.181 386.496 633.216C392.8 636.64 404.8 649.76 412.96 663.616C406.376 660.843 399.054 660.353 392.16 662.224C392.03 662.268 391.921 662.361 391.859 662.484C391.796 662.606 391.783 662.748 391.824 662.88C391.856 662.97 391.912 663.05 391.985 663.112C392.058 663.174 392.146 663.215 392.24 663.232H392.496C399.611 661.317 407.175 662.01 413.824 665.184C417.394 671.002 419.892 677.413 421.2 684.112C421.212 684.216 421.253 684.315 421.318 684.397C421.383 684.479 421.469 684.541 421.568 684.576H421.824C421.963 684.556 422.088 684.483 422.175 684.373C422.261 684.263 422.302 684.123 422.288 683.984C421.52 677.984 418.672 671.232 414.864 664.56Z" fill="white"/>
<path d="M197.296 486.96V500.608C197.296 501.245 197.549 501.855 197.999 502.305C198.449 502.755 199.059 503.008 199.696 503.008C200.333 503.008 200.943 502.755 201.393 502.305C201.843 501.855 202.096 501.245 202.096 500.608V486.96H197.296Z" fill="#2E4BB7"/>
<path d="M202.08 422.096C202.08 421.459 201.827 420.849 201.377 420.399C200.927 419.949 200.317 419.696 199.68 419.696C199.043 419.696 198.433 419.949 197.983 420.399C197.533 420.849 197.28 421.459 197.28 422.096V486.96H202.08V422.096Z" fill="#263238"/>
<path d="M207.888 417.504C207.661 417.26 207.386 417.065 207.08 416.933C206.774 416.801 206.444 416.734 206.111 416.737C205.778 416.739 205.449 416.811 205.145 416.948C204.841 417.084 204.569 417.283 204.346 417.53C204.123 417.778 203.954 418.069 203.85 418.386C203.745 418.702 203.708 419.037 203.74 419.369C203.772 419.7 203.873 420.022 204.036 420.312C204.2 420.603 204.422 420.856 204.688 421.056L247.888 460L251.296 456.608L207.888 417.504Z" fill="#263238"/>
<path d="M258.848 463.52L251.2 456.608L247.792 460L255.632 467.072C256.07 467.47 256.64 467.692 257.232 467.696C257.568 467.695 257.901 467.624 258.209 467.489C258.517 467.355 258.795 467.158 259.024 466.912C259.447 466.437 259.666 465.815 259.633 465.18C259.6 464.545 259.318 463.948 258.848 463.52Z" fill="#2E4BB7"/>
<path d="M140.528 463.52C140.058 463.948 139.776 464.545 139.743 465.18C139.71 465.815 139.929 466.437 140.352 466.912C140.581 467.158 140.859 467.355 141.167 467.489C141.475 467.624 141.808 467.695 142.144 467.696C142.736 467.692 143.306 467.47 143.744 467.072L151.584 460L148.192 456.608L140.528 463.52Z" fill="#2E4BB7"/>
<path d="M194.88 417.68C194.67 417.444 194.415 417.251 194.131 417.114C193.846 416.977 193.536 416.898 193.221 416.882C192.905 416.866 192.589 416.912 192.292 417.019C191.994 417.126 191.721 417.291 191.488 417.504L148.192 456.608L151.584 460L194.784 421.056C195.242 420.619 195.508 420.02 195.526 419.388C195.544 418.756 195.312 418.142 194.88 417.68Z" fill="#263238"/>
<path d="M213.808 416.08H185.6V424.256C185.6 426.352 187.008 428.448 189.776 430.048C192.87 431.618 196.291 432.436 199.76 432.436C203.229 432.436 206.65 431.618 209.744 430.048C212.48 428.448 213.856 426.352 213.84 424.256L213.808 416.08Z" fill="#37474F"/>
<path d="M209.6 410.304C215.12 413.504 215.152 418.672 209.6 421.856C206.508 423.433 203.087 424.256 199.616 424.256C196.145 424.256 192.724 423.433 189.632 421.856C184.096 418.656 184.064 413.488 189.632 410.304C192.724 408.729 196.146 407.908 199.616 407.908C203.086 407.908 206.508 408.729 209.6 410.304Z" fill="#455A64"/>
<path d="M195.696 117.136V415.216C195.735 415.561 195.863 415.89 196.068 416.171C196.273 416.451 196.547 416.674 196.864 416.816C197.74 417.265 198.711 417.5 199.696 417.5C200.681 417.5 201.652 417.265 202.528 416.816C202.845 416.676 203.118 416.453 203.321 416.172C203.523 415.891 203.647 415.561 203.68 415.216V117.136H195.696Z" fill="#263238"/>
<path d="M69.056 186.496V443.008L328.032 293.504V35.856L69.056 186.496Z" fill="#455A64"/>
<path d="M78.64 192L318.432 52.544V287.952L78.64 426.4V192Z" fill="#FAFAFA"/>
<path d="M76.352 182.4C78.4639 183.775 80.2211 185.629 81.4806 187.812C82.7401 189.994 83.4663 192.444 83.6 194.96C83.6 199.568 80.4 201.36 76.304 199.104C74.1921 197.729 72.4349 195.875 71.1754 193.692C69.9159 191.51 69.1897 189.06 69.056 186.544C69.072 181.872 72.336 180.016 76.352 182.4Z" fill="#263238"/>
<path d="M344 43.568C344 43.44 344 43.328 344 43.216C344 43.104 344 43.104 344 43.056V42.976C344 42.976 344 42.896 344 42.848C344.007 42.7308 344.007 42.6132 344 42.496C344.006 42.3734 344.006 42.2506 344 42.128C344.006 42.0107 344.006 41.8932 344 41.776C344 41.648 344 41.536 344 41.408C343.992 41.3603 343.992 41.3117 344 41.264V41.184V41.024L343.904 40.64C343.87 40.5462 343.843 40.4499 343.824 40.352V40.256C343.824 40.128 343.824 40 343.696 39.872C343.661 39.7469 343.618 39.6241 343.568 39.504V39.28L343.424 38.928C343.424 38.832 343.344 38.752 343.312 38.672V38.4C343.252 38.2858 343.199 38.1682 343.152 38.048L342.96 37.664C342.96 37.552 342.848 37.456 342.8 37.36L342.592 36.976L342.48 36.8V36.72L342.272 36.4L341.984 35.936C341.84 35.712 341.68 35.504 341.52 35.28C341.408 35.136 341.312 34.992 341.2 34.864L340.928 34.528L340.656 34.192L340.368 33.888L340.16 33.68L339.856 33.376L339.76 33.296L339.6 33.152L339.28 32.864L339.136 32.752L339.024 32.672L338.704 32.416L338.464 32.256L338.16 32.064L337.856 31.872H337.776L337.552 31.744L337.248 31.584H337.056L336.752 31.456L336.464 31.344H336.368H336.176L335.872 31.264H335.728H335.568C335.462 31.2551 335.354 31.2551 335.248 31.264H335.056H334.208L332.8 30.4H332.704L332.288 30.512L331.744 30.768L71.168 181.824C71.3435 181.716 71.5316 181.63 71.728 181.568C71.872 181.509 72.0223 181.466 72.176 181.44H72.72H72.848C73.029 181.424 73.211 181.424 73.392 181.44L74 181.52L74.64 181.712L75.328 182L76.048 182.384C76.288 182.512 76.528 182.672 76.768 182.832C76.992 182.992 77.216 183.152 77.424 183.328C77.632 183.504 77.84 183.68 78.032 183.872H78.112L78.72 184.48C78.928 184.704 79.136 184.944 79.328 185.184C79.52 185.424 79.728 185.68 79.92 185.952C80.096 186.176 80.256 186.432 80.432 186.672L80.72 187.136L80.96 187.536C80.9913 187.603 81.0288 187.668 81.072 187.728L81.44 188.4V188.48C81.584 188.752 81.712 189.04 81.84 189.328C81.952 189.616 82.08 189.888 82.176 190.176C82.288 190.464 82.384 190.752 82.48 191.04C82.5715 191.313 82.6463 191.59 82.704 191.872C82.704 192.16 82.816 192.448 82.864 192.72C82.864 193.008 82.944 193.296 82.976 193.584C82.976 193.872 82.976 194.144 82.976 194.432C82.976 194.72 82.976 194.96 82.976 195.216C82.9609 195.442 82.9288 195.667 82.88 195.888V195.984C82.88 196.192 82.784 196.384 82.72 196.576C82.7295 196.613 82.7295 196.651 82.72 196.688C82.6604 196.862 82.5909 197.033 82.512 197.2C82.416 197.392 82.32 197.568 82.224 197.728L81.936 198.096L81.824 198.224C81.824 198.32 81.648 198.4 81.552 198.496L81.44 198.592C81.3062 198.702 81.1614 198.799 81.008 198.88L341.936 48.56C342.081 48.4678 342.22 48.3662 342.352 48.256L342.464 48.16L342.736 47.904L342.848 47.776C342.953 47.6605 343.049 47.5375 343.136 47.408C343.241 47.2483 343.338 47.0827 343.424 46.912C343.474 46.8028 343.516 46.6906 343.552 46.576C343.556 46.5174 343.556 46.4586 343.552 46.4C343.557 46.3628 343.557 46.3251 343.552 46.288C343.559 46.2564 343.559 46.2236 343.552 46.192C343.599 46.0736 343.631 45.95 343.648 45.824C343.655 45.7763 343.655 45.7277 343.648 45.68V45.44C343.648 45.44 343.648 45.344 343.648 45.296V44.96C343.656 44.8909 343.656 44.8211 343.648 44.752V44.608C343.648 44.496 343.648 44.384 343.648 44.256V43.904L344 43.568Z" fill="#37474F"/>
<path d="M98.688 255.648L124.288 257.856L124.384 291.808C108.064 301.232 94.8 293.68 94.736 274.912C94.8628 268.303 96.2023 261.773 98.688 255.648Z" fill="#2E4BB7"/>
<path d="M139.072 219.856C147.888 220.656 153.84 228.192 153.872 240.752C153.872 259.52 140.736 282.352 124.416 291.808L124.32 257.824L138.944 220.048L139.072 219.856Z" fill="#2E4BB7"/>
<path d="M124.224 223.904C128.632 221.089 133.799 219.698 139.024 219.92V220.112L124.32 257.856L98.72 255.648C103.776 242.56 113.296 230.208 124.224 223.904Z" fill="#2E4BB7"/>
<g opacity="0.2">
<path d="M124.224 223.904C128.632 221.089 133.799 219.698 139.024 219.92V220.112L124.32 257.856L98.72 255.648C103.776 242.56 113.296 230.208 124.224 223.904Z" fill="white"/>
</g>
<path d="M98.688 255.648L124.288 257.856L124.384 291.808C108.064 301.232 94.8 293.68 94.736 274.912C94.8628 268.303 96.2023 261.773 98.688 255.648Z" fill="#2E4BB7"/>
<path d="M110.384 351.024L110.4 356.608L95.024 365.472L95.008 359.904L110.384 351.024Z" fill="#E0E0E0"/>
<path d="M117.392 324.656L117.408 330.224L94.96 343.184L94.944 337.616L117.392 324.656Z" fill="#E0E0E0"/>
<path d="M144.56 320.144L144.576 325.712L94.992 354.336L94.976 348.752L144.56 320.144Z" fill="#E0E0E0"/>
<path d="M225.312 262.352L225.328 267.92L179.472 294.384L179.456 288.816L225.312 262.352Z" fill="#E0E0E0"/>
<g opacity="0.1">
<path d="M139.072 219.856C147.888 220.656 153.84 228.192 153.872 240.752C153.872 259.52 140.736 282.352 124.416 291.808L124.32 257.824L138.944 220.048L139.072 219.856Z" fill="black"/>
</g>
<path d="M174.672 194.784C177.136 193.36 179.136 194.496 179.152 197.328C179.07 198.877 178.622 200.384 177.847 201.727C177.071 203.07 175.988 204.211 174.688 205.056C172.224 206.48 170.224 205.328 170.208 202.496C170.289 200.949 170.736 199.443 171.512 198.103C172.288 196.762 173.371 195.625 174.672 194.784Z" fill="#2E4BB7"/>
<path d="M174.72 212.48C177.184 211.056 179.184 212.192 179.2 215.04C179.117 216.585 178.671 218.088 177.898 219.428C177.125 220.768 176.047 221.907 174.752 222.752C172.272 224.176 170.272 223.04 170.256 220.192C170.338 218.645 170.786 217.14 171.562 215.8C172.338 214.459 173.42 213.322 174.72 212.48Z" fill="#2E4BB7"/>
<path d="M174.768 230.176C177.232 228.752 179.248 229.904 179.248 232.736C179.169 234.281 178.724 235.786 177.951 237.127C177.178 238.467 176.098 239.605 174.8 240.448C172.32 241.888 170.32 240.72 170.304 237.888C170.386 236.341 170.834 234.836 171.61 233.496C172.386 232.155 173.468 231.018 174.768 230.176Z" fill="#2E4BB7"/>
<path d="M174.816 247.872C177.28 246.448 179.296 247.6 179.296 250.432C179.217 251.978 178.772 253.482 177.999 254.823C177.226 256.163 176.146 257.301 174.848 258.144C172.368 259.568 170.368 258.432 170.368 255.6C170.446 254.052 170.89 252.545 171.663 251.201C172.436 249.858 173.517 248.717 174.816 247.872Z" fill="#2E4BB7"/>
<path d="M199.84 182.432L199.856 188.32L185.152 196.816L185.136 190.912L199.84 182.432Z" fill="#E0E0E0"/>
<path d="M219.472 171.088L219.488 176.992L204.8 185.472L204.784 179.584L219.472 171.088Z" fill="#E0E0E0"/>
<path d="M225.184 220.992L225.2 226.88L204.048 239.104L204.032 233.2L225.184 220.992Z" fill="#E0E0E0"/>
<path d="M212.224 210.736L212.24 216.64L185.248 232.224L185.232 226.32L212.224 210.736Z" fill="#E0E0E0"/>
<path d="M203.776 197.888L203.792 203.776L185.2 214.512L185.184 208.624L203.776 197.888Z" fill="#E0E0E0"/>
<path d="M199.984 235.536L200 241.44L185.312 249.92L185.296 244.032L199.984 235.536Z" fill="#E0E0E0"/>
<path d="M156.432 324.448L156.448 330.016L118.208 352.096L118.192 346.512L156.432 324.448Z" fill="#E0E0E0"/>
<path d="M136.4 302.512L136.432 308.096L94.944 332.048L94.928 326.464L136.4 302.512Z" fill="#E0E0E0"/>
<path d="M225.344 273.504L225.36 279.072L204.928 290.864L204.912 285.296L225.344 273.504Z" fill="#E0E0E0"/>
<path d="M225.376 284.64L225.392 290.224L197.552 306.288L197.536 300.704L225.376 284.64Z" fill="#E0E0E0"/>
<path d="M264.48 239.728L264.496 245.296L242.048 258.256L242.032 252.688L264.48 239.728Z" fill="#E0E0E0"/>
<path d="M300.912 218.704L300.928 224.272L270.8 241.664L270.784 236.096L300.912 218.704Z" fill="#E0E0E0"/>
<path d="M262.896 166.688L263.04 216.832L254.64 221.696L254.496 171.536L262.896 166.688Z" fill="#2E4BB7"/>
<path d="M275.52 167.76L275.648 209.568L267.248 214.416L267.12 172.624L275.52 167.76Z" fill="#2E4BB7"/>
<path d="M288.064 141.648L288.24 202.288L279.84 207.136L279.664 146.496L288.064 141.648Z" fill="#2E4BB7"/>
<path d="M300.64 123.952L300.848 195.008L292.448 199.856L292.24 128.816L300.64 123.952Z" fill="#2E4BB7"/>
<path d="M257.456 266.112L257.472 271.696L242.112 280.56L242.096 274.976L257.456 266.112Z" fill="#E0E0E0"/>
<path d="M189.728 305.216V310.8L164.256 325.504L164.24 319.936L189.728 305.216Z" fill="#E0E0E0"/>
<path d="M197.104 289.808V295.376L152.384 321.2L152.368 315.632L197.104 289.808Z" fill="#E0E0E0"/>
<path d="M176.256 279.504L176.272 285.088L144.24 303.568L144.224 298L176.256 279.504Z" fill="#E0E0E0"/>
<path d="M171.632 293.344L171.648 298.912L125.232 325.712L125.216 320.144L171.632 293.344Z" fill="#E0E0E0"/>
<path d="M300.976 240.992L300.992 246.56L265.296 267.168L265.28 261.6L300.976 240.992Z" fill="#E0E0E0"/>
<path d="M300.944 229.856L300.96 235.424L242.08 269.408L242.064 263.84L300.944 229.856Z" fill="#E0E0E0"/>
<path d="M283.488 217.584L283.504 223.168L242.016 247.12L242 241.552L283.488 217.584Z" fill="#E0E0E0"/>
<path d="M300.848 199.2L300.864 202.112L242.064 236.064L242.048 233.136L300.848 199.2Z" fill="#395A65"/>
<path d="M250.352 194.64L250.448 224.112L242.048 228.96L241.952 199.488L250.352 194.64Z" fill="#2E4BB7"/>
<path d="M690.752 298.976C688.432 324.736 690.416 327.376 672.912 326.064V298.976H690.752Z" fill="#F28F8F"/>
<path d="M671.76 252.8C687.28 251.808 700.16 257.104 691.904 301.504C684.304 305.632 671.76 303.344 671.76 303.344V252.8Z" fill="#37474F"/>
<path d="M643.072 555.072C641.968 558.56 638.144 560.56 634.496 560.848C630.848 561.136 627.248 560.112 623.648 559.456C615.648 558 607.824 559.456 599.792 559.264C597.17 559.279 594.555 558.989 592 558.4C589.404 557.813 587.055 556.432 585.28 554.448C584.274 553.243 583.611 551.789 583.36 550.24C583.195 551.41 583.281 552.601 583.612 553.735C583.943 554.869 584.512 555.919 585.28 556.816C587.063 558.79 589.408 560.17 592 560.768C594.572 561.355 597.203 561.64 599.84 561.616C607.84 561.808 615.648 560.352 623.696 561.824C627.296 562.464 630.896 563.424 634.544 563.2C638.192 562.976 642.016 560.928 643.12 557.44C643.464 556.234 643.562 554.972 643.408 553.728C643.337 554.185 643.224 554.635 643.072 555.072Z" fill="#263238"/>
<path d="M642.864 548.4C642.368 545.968 641.872 543.52 641.392 541.088C641.202 539.781 640.78 538.518 640.144 537.36C639.823 536.794 639.358 536.322 638.796 535.994C638.234 535.665 637.595 535.491 636.944 535.488C632.544 534.912 626.336 533.312 622.672 535.84C616.875 539.803 609.963 541.81 602.944 541.568C599.296 541.424 595.648 540.672 592.016 541.12C588.384 541.568 584.64 543.584 583.552 547.072C583.249 548.111 583.189 549.206 583.376 550.272C583.627 551.821 584.29 553.275 585.296 554.48C587.071 556.449 589.413 557.819 592 558.4C594.571 558.993 597.202 559.283 599.84 559.264C607.84 559.456 615.648 558 623.696 559.456C627.296 560.112 630.896 561.056 634.544 560.848C638.192 560.64 642.016 558.56 643.12 555.072C643.256 554.633 643.352 554.184 643.408 553.728C643.506 551.934 643.323 550.137 642.864 548.4Z" fill="#37474F"/>
<path d="M621.536 528.16L621.216 537.76C621.18 538.738 621.526 539.692 622.179 540.42C622.833 541.148 623.744 541.594 624.72 541.664C627.917 541.896 631.128 541.864 634.32 541.568C635.616 541.45 636.826 540.87 637.728 539.932C638.63 538.995 639.164 537.763 639.232 536.464L639.616 529.424L621.536 528.16Z" fill="#FFA8A7"/>
<path d="M683.792 523.088C683.757 524.502 683.313 525.875 682.512 527.04C681.381 528.414 679.777 529.315 678.016 529.568C675.906 529.932 673.737 529.695 671.756 528.883C669.775 528.07 668.063 526.716 666.816 524.976C665.616 523.232 664.944 521.184 663.808 519.408C662.083 517.035 659.961 514.978 657.536 513.328C655.12 511.668 652.991 509.625 651.232 507.28C650.403 506.126 649.861 504.792 649.649 503.387C649.438 501.982 649.564 500.547 650.016 499.2C649.796 499.525 649.603 499.867 649.44 500.224C648.904 501.637 648.725 503.162 648.921 504.661C649.116 506.16 649.679 507.587 650.56 508.816C652.334 511.23 654.497 513.334 656.96 515.04C659.443 516.748 661.608 518.876 663.36 521.328C664.512 523.152 665.216 525.264 666.432 527.056C667.686 528.851 669.424 530.255 671.442 531.105C673.461 531.954 675.679 532.215 677.84 531.856C679.642 531.588 681.279 530.658 682.432 529.248C683.465 527.614 683.932 525.686 683.76 523.76C683.824 523.504 683.808 523.296 683.792 523.088Z" fill="#263238"/>
<path d="M680.912 511.12C678 506.048 672.032 502.352 667.408 498.752C664.891 496.558 661.788 495.146 658.48 494.688C656.827 494.492 655.154 494.791 653.672 495.549C652.19 496.307 650.968 497.489 650.16 498.944C650.16 499.024 650.16 499.12 650.048 499.2C649.596 500.547 649.47 501.982 649.681 503.387C649.893 504.792 650.435 506.126 651.264 507.28C653.023 509.625 655.152 511.668 657.568 513.328C659.993 514.978 662.115 517.035 663.84 519.408C664.976 521.184 665.648 523.232 666.848 524.976C668.095 526.717 669.807 528.071 671.788 528.883C673.769 529.695 675.938 529.932 678.048 529.568C679.809 529.315 681.413 528.414 682.544 527.04C683.345 525.875 683.789 524.502 683.824 523.088C683.848 522.63 683.848 522.17 683.824 521.712C683.748 517.994 682.747 514.354 680.912 511.12Z" fill="#37474F"/>
<path d="M668.336 506.72V515.392C670.466 516.389 672.806 516.854 675.155 516.748C677.504 516.642 679.792 515.968 681.824 514.784L682.64 506.992L668.336 506.72Z" fill="#FFA8A7"/>
<path d="M684.912 349.488C687.504 357.28 684.304 394.288 682.8 429.856C688.432 443.296 686.912 481.424 683.664 508.512C683.664 508.512 678.032 511.968 667.84 508.512L655.04 433.76L653.28 391.504C653.28 391.504 650.08 428.992 646.384 453.04C649.84 471.456 648.976 474.928 640.416 531.568C637.438 533.068 634.15 533.849 630.816 533.849C627.482 533.849 624.194 533.068 621.216 531.568C616.416 451.984 618.16 379.456 619.072 353.376L684.912 349.488Z" fill="#455A64"/>
<path d="M617.6 289.68V355.552C656.384 371.792 681.504 357.152 684.928 349.488C683.136 322.672 689.472 291.312 688.992 277.984C688.512 264.656 686.864 249.648 666.208 252.656L644.24 254.8L633.04 257.504L617.6 289.68Z" fill="#2E4BB7"/>
<path d="M631.168 203.552C626.464 201.776 621.856 195.008 626.576 192.032C627.888 191.056 631.712 192.192 634.8 192.032C632.096 189.584 631.44 186.656 632.8 185.744C634.16 184.832 637.792 188.288 644.368 187.632C650.944 186.976 673.616 179.632 676.464 196.256C676.787 195.686 677.235 195.195 677.774 194.822C678.313 194.449 678.929 194.203 679.577 194.101C680.225 193.999 680.887 194.046 681.514 194.236C682.142 194.426 682.718 194.756 683.2 195.2L678.4 198.4C685.392 208.224 683.12 219.6 666.192 242.08C664.229 244.483 661.438 246.065 658.368 246.515C655.298 246.965 652.17 246.25 649.6 244.512L642.608 227.28L635.792 218.992L631.168 203.552Z" fill="#263238"/>
<path d="M629.6 217.312L625.056 225.232L630.032 227.072L629.6 217.312Z" fill="#F28F8F"/>
<path d="M631.168 203.552C628.149 214.502 627.706 226.002 629.872 237.152C630.109 239.074 630.824 240.906 631.952 242.48C633.459 244.092 635.539 245.046 637.744 245.136C639.922 245.215 642.101 245.005 644.224 244.512V254.8C652.032 256.64 660.064 257.376 666.192 252.656V242.128C661.784 243.54 657.093 243.832 652.544 242.976C647.152 240.064 646.144 230.176 646.832 227.616C647.312 228.251 647.969 228.73 648.721 228.991C649.473 229.253 650.285 229.287 651.056 229.088C651.798 228.885 652.491 228.534 653.094 228.056C653.696 227.577 654.195 226.981 654.56 226.304C655.271 224.946 655.712 223.462 655.856 221.936C656.246 220.091 655.963 218.166 655.056 216.512C654.368 215.587 653.415 214.894 652.323 214.525C651.23 214.156 650.052 214.129 648.944 214.448C647.847 214.793 646.829 215.35 645.948 216.089C645.066 216.827 644.339 217.732 643.808 218.752C643.446 219.38 643.141 220.038 642.896 220.72C642.807 220.988 642.628 221.217 642.389 221.367C642.15 221.518 641.867 221.58 641.587 221.544C641.307 221.508 641.048 221.376 640.855 221.17C640.662 220.964 640.546 220.698 640.528 220.416C640.266 217.454 640.819 214.478 642.128 211.808C641.236 211.717 640.377 211.426 639.612 210.958C638.848 210.49 638.199 209.857 637.712 209.104C637.198 208.401 636.854 207.589 636.707 206.732C636.56 205.874 636.614 204.994 636.864 204.16C634.944 204.29 633.017 204.085 631.168 203.552Z" fill="#FFA8A7"/>
<path opacity="0.2" d="M654.4 417.232L652.96 382.784C661.856 382.784 670.128 376.128 676.4 369.824C670.368 380.576 658.672 385.344 658.672 385.344L654.4 417.232Z" fill="black"/>
<path d="M617.6 336.512V317.312L624.208 304.832L604.288 292.448L593.76 313.792C592.913 315.504 592.455 317.382 592.419 319.292C592.383 321.201 592.769 323.095 593.551 324.838C594.332 326.581 595.489 328.13 596.938 329.373C598.388 330.617 600.095 331.525 601.936 332.032L617.6 336.512Z" fill="#FFA8A7"/>
<path d="M617.584 317.328L610.784 327.312L617.584 324.464V317.328Z" fill="#F28F8F"/>
<path d="M633.072 257.504L628.048 258.224C624.639 258.716 621.413 260.071 618.674 262.16C615.936 264.249 613.776 267.003 612.4 270.16L601.712 294.816C609.952 307.952 625.808 306.96 625.808 306.96L636.624 286.032C638.963 281.486 639.875 276.34 639.241 271.267C638.608 266.194 636.457 261.431 633.072 257.6V257.504Z" fill="#37474F"/>
<path d="M510.656 221.416L516 217.448C517.665 216.215 518.929 214.517 519.632 212.568L520.896 209.096C521.776 206.708 523.333 204.629 525.376 203.112C528.429 200.845 531.181 198.2 533.568 195.24C534.335 196.078 534.789 197.155 534.853 198.289C534.917 199.423 534.588 200.545 533.92 201.464C532.941 202.789 531.872 204.046 530.72 205.224L533.664 205.416C535.789 205.569 537.909 205.055 539.728 203.944L547.2 199.4C547.415 199.27 547.66 199.2 547.91 199.195C548.161 199.191 548.409 199.252 548.628 199.374C548.847 199.496 549.03 199.673 549.159 199.889C549.287 200.104 549.357 200.349 549.36 200.6C549.255 204.301 548.524 207.958 547.2 211.416C546.589 213.062 545.629 214.556 544.386 215.796C543.143 217.036 541.647 217.992 540 218.6C536.032 220.12 532.176 221.432 529.968 222.168C528.711 222.588 527.529 223.204 526.464 223.992L518.608 229.8L510.656 221.416Z" fill="#FFA8A7"/>
<path d="M516.464 216.248L509.712 220.6C509.93 223.114 510.865 225.513 512.405 227.512C513.945 229.511 516.025 231.027 518.4 231.88L524.592 226.024C524.592 226.024 518.624 225.096 516.464 216.248Z" fill="#37474F"/>
<path d="M512.224 227.272C510.807 225.312 509.94 223.008 509.712 220.6L488.624 234.216L476.176 199.4C475.358 197.121 473.928 195.112 472.042 193.594C470.156 192.075 467.889 191.106 465.488 190.792L459.408 190.008L465.072 230.792L474.768 250.232C475.637 251.971 476.886 253.493 478.423 254.683C479.96 255.874 481.746 256.703 483.647 257.109C485.549 257.515 487.517 257.487 489.406 257.028C491.295 256.568 493.057 255.689 494.56 254.456L518.4 231.88C515.937 230.976 513.791 229.375 512.224 227.272Z" fill="#455A64"/>
<path d="M486.4 455.304C485.096 456.56 483.545 457.532 481.845 458.157C480.146 458.782 478.335 459.047 476.528 458.936C472.922 458.693 469.388 457.804 466.096 456.312C462.768 454.936 458.576 451.096 454.896 451.16C451.37 451.137 447.849 450.896 444.352 450.44C444.225 445.633 444.725 440.83 445.84 436.152L462.688 435.704C467.232 441.928 476.08 447.112 482.768 449.064C483.797 449.353 484.728 449.917 485.461 450.695C486.193 451.473 486.701 452.436 486.928 453.48C486.937 453.517 486.937 453.555 486.928 453.592C486.833 454.185 486.655 454.761 486.4 455.304Z" fill="#455A64"/>
<path d="M454.896 451.16C458.512 451.16 462.704 454.936 466.096 456.312C469.388 457.804 472.922 458.693 476.528 458.936C478.335 459.047 480.146 458.782 481.845 458.157C483.545 457.532 485.096 456.56 486.4 455.304C486.672 454.763 486.866 454.187 486.976 453.592C486.985 453.555 486.985 453.517 486.976 453.48C487.136 454.223 487.136 454.992 486.976 455.736C486.862 456.33 486.668 456.906 486.4 457.448C485.091 458.698 483.54 459.665 481.841 460.29C480.143 460.915 478.335 461.184 476.528 461.08C472.919 460.839 469.385 459.945 466.096 458.44C462.768 457.064 458.576 453.224 454.896 453.304C451.425 453.332 447.956 453.129 444.512 452.696C444.432 451.944 444.384 451.192 444.352 450.44C447.849 450.896 451.37 451.137 454.896 451.16Z" fill="#263238"/>
<path d="M407.344 456.888C407.331 458.602 407.498 460.313 407.84 461.992C408.382 464.985 410.055 467.655 412.512 469.448C414.774 470.738 417.332 471.422 419.936 471.432C422.227 471.666 424.542 471.427 426.736 470.728C428.382 470.14 429.78 469.012 430.704 467.528C430.714 467.554 430.714 467.582 430.704 467.608C430.387 468.719 429.805 469.736 429.007 470.572C428.21 471.408 427.222 472.038 426.128 472.408C423.941 473.115 421.63 473.354 419.344 473.112C416.739 473.105 414.181 472.422 411.92 471.128C409.466 469.339 407.794 466.675 407.248 463.688C406.901 462.004 406.73 460.288 406.736 458.568C406.731 457.396 406.486 456.237 406.016 455.164C405.545 454.091 404.859 453.125 404 452.328C403.584 451.928 403.184 451.528 402.816 451.096C402.55 450.794 402.348 450.441 402.221 450.059C402.095 449.677 402.047 449.273 402.08 448.872C402.08 448.552 402.08 448.232 402.176 447.928C402.8 448.648 404.256 450.376 404.624 450.728C405.467 451.52 406.143 452.473 406.61 453.532C407.077 454.59 407.327 455.731 407.344 456.888Z" fill="#263238"/>
<path d="M420.224 439.096C419.672 442.601 420.127 446.191 421.536 449.448C422.953 452.683 424.799 455.713 427.024 458.456C428.11 459.759 429.069 461.163 429.888 462.648C430.693 464.11 430.981 465.802 430.704 467.448C429.78 468.932 428.382 470.06 426.736 470.648C424.542 471.347 422.227 471.586 419.936 471.352C417.332 471.342 414.774 470.658 412.512 469.368C410.055 467.575 408.382 464.905 407.84 461.912C407.498 460.233 407.331 458.522 407.344 456.808C407.336 455.637 407.089 454.479 406.618 453.406C406.148 452.333 405.464 451.368 404.608 450.568C404.24 450.216 402.784 448.488 402.16 447.768C402.503 445.216 403.363 442.76 404.688 440.552L420.224 439.096Z" fill="#455A64"/>
<path d="M469.984 272.696L468.592 368.792L464.048 435.992C452.576 443.256 444.256 437.304 444.256 437.304C439.904 405.448 439.312 385.864 441.696 372.6L439.52 320.744L432.976 374.568L422 440.568C410.224 448.2 401.904 440.568 401.904 440.568C401.904 416.136 399.728 388.824 406.464 371.208C403.587 338.665 404.661 305.893 409.664 273.608L469.984 272.696Z" fill="#263238"/>
<path opacity="0.3" d="M441.92 301L439.52 320.792L440.528 345.08L444.96 305.08C455.2 301.064 456.528 295.48 456.528 295.48C452.198 298.516 447.175 300.414 441.92 301Z" fill="black"/>
<path d="M448.176 188.792L459.376 189.976C468.576 198.088 473.328 215.112 471.344 233.912C470.127 246.802 469.662 259.752 469.952 272.696C445.024 290.904 413.552 277.656 409.6 273.688L411.44 250.648C411.649 248.051 411.221 245.442 410.192 243.048C407.824 237.576 403.632 226.824 403.072 218.472C402.731 211.044 404.295 203.653 407.616 197L424 189.88L448.176 188.792Z" fill="#37474F"/>
<path d="M410.224 243.048C407.14 236.173 404.869 228.961 403.456 221.56C405.776 222.952 408.256 224.328 409.184 226.648C412.255 234.089 413.057 242.272 411.488 250.168C411.616 247.729 411.183 245.294 410.224 243.048Z" fill="#37474F"/>
<path d="M451.296 205.176C457.063 219.086 460.199 233.946 460.544 249L456 259L448.752 249.496C449.311 234.931 449.018 220.346 447.872 205.816L451.296 205.176Z" fill="#2E4BB7"/>
<path d="M451.68 197C451.882 199.731 451.753 202.476 451.296 205.176C450.208 205.704 448.996 205.925 447.792 205.816C445.583 203.856 443.689 201.568 442.176 199.032L447.792 197H451.68Z" fill="#2E4BB7"/>
<path d="M447.792 197C442.992 198.792 438.656 207.4 438.656 207.4C425.952 196.616 423.984 189.8 423.984 189.8C425.54 187.247 427.957 185.334 430.8 184.408L447.792 197Z" fill="#37474F"/>
<path d="M447.792 197C451.488 197.096 454.752 202.248 454.752 202.248C455.344 193.24 447.792 186.248 447.792 186.248V197Z" fill="#37474F"/>
<path d="M430.512 174.408L447.792 180.584V186.984C443.902 186.43 440.17 185.073 436.832 183C433.845 180.901 431.626 177.884 430.512 174.408Z" fill="#F28F8F"/>
<path d="M430.512 174.408C431.626 177.884 433.845 180.901 436.832 183C440.17 185.074 443.902 186.43 447.792 186.984V197C447.792 197 429.52 188.792 429.52 184.936V174.04L430.512 174.408Z" fill="#FFA8A7"/>
<path d="M463.808 149.048C466.264 149.133 468.671 148.351 470.608 146.84C471.708 145.963 472.622 144.875 473.296 143.64C473.422 143.396 473.475 143.121 473.45 142.848C473.425 142.575 473.322 142.315 473.154 142.098C472.986 141.881 472.76 141.716 472.501 141.624C472.243 141.532 471.964 141.515 471.696 141.576C470.368 141.815 469.008 141.815 467.68 141.576C469.207 139.583 470.323 137.306 470.963 134.878C471.603 132.45 471.754 129.919 471.408 127.432C471.365 127.156 471.259 126.893 471.097 126.665C470.934 126.438 470.721 126.251 470.474 126.12C470.227 125.99 469.952 125.919 469.673 125.913C469.393 125.907 469.116 125.967 468.864 126.088C463.403 128.852 457.312 130.132 451.2 129.8C448 129.56 444.72 128.872 441.456 128.616C438.182 128.224 434.863 128.733 431.856 130.088C430.369 130.781 429.097 131.864 428.176 133.222C427.255 134.58 426.719 136.162 426.624 137.8C426.254 137.278 425.778 136.842 425.226 136.519C424.674 136.196 424.06 135.995 423.424 135.928C422.751 135.843 422.068 135.899 421.418 136.092C420.768 136.284 420.166 136.61 419.648 137.048C421.536 138.072 423.376 139.128 425.264 140.152C423.328 139.464 420.896 140.984 419.936 142.792C419.109 144.684 418.752 146.748 418.896 148.808C418.77 151.533 418.893 154.265 419.264 156.968C419.628 159.684 420.692 162.259 422.352 164.44C423.811 166.231 425.764 167.555 427.968 168.248C430.972 169.081 434.158 168.981 437.104 167.96C440.023 166.935 442.802 165.548 445.376 163.832C451.959 159.477 458.128 154.529 463.808 149.048Z" fill="#E0E0E0"/>
<path d="M464.224 143.608C466.112 154.927 464.867 166.546 460.624 177.208C459.863 179.792 458.257 182.045 456.064 183.608C453.664 184.984 450.672 184.696 447.936 184.28C443.503 183.769 439.181 182.548 435.136 180.664C431.047 178.727 427.861 175.289 426.24 171.064C424.785 171.361 423.275 171.23 421.892 170.688C420.51 170.146 419.313 169.215 418.448 168.008C416.705 165.481 415.804 162.469 415.872 159.4C415.872 157.48 416.224 155.208 417.952 154.36C418.809 154.081 419.727 154.048 420.601 154.266C421.475 154.484 422.271 154.943 422.896 155.592C425.183 157.455 426.856 159.964 427.696 162.792C428.96 158.104 430.896 153.576 432.208 148.888C432.513 147.011 433.484 145.307 434.944 144.088C436.912 142.824 439.472 143.544 441.744 144.088C449.155 145.851 456.895 145.686 464.224 143.608Z" fill="#FFA8A7"/>
<path d="M450.56 157.848L456.032 167.08L449.504 168.296L450.56 157.848Z" fill="#F28F8F"/>
<path d="M443.2 171.48L448.176 173.896C447.755 174.469 447.155 174.885 446.472 175.079C445.788 175.273 445.059 175.234 444.4 174.968C443.83 174.612 443.4 174.072 443.182 173.437C442.963 172.802 442.97 172.111 443.2 171.48Z" fill="#F28F8F"/>
<path opacity="0.3" d="M443.2 171.48L448.176 173.896C447.755 174.469 447.155 174.885 446.472 175.079C445.788 175.273 445.059 175.234 444.4 174.968C443.83 174.612 443.4 174.072 443.182 173.437C442.963 172.802 442.97 172.111 443.2 171.48Z" fill="black"/>
<path d="M446.128 175.128C445.549 175.255 444.946 175.199 444.4 174.968C443.948 174.711 443.58 174.327 443.344 173.863C443.108 173.4 443.014 172.877 443.072 172.36C443.838 172.345 444.581 172.624 445.149 173.138C445.717 173.652 446.067 174.364 446.128 175.128Z" fill="#F28F8F"/>
<path d="M441.088 158.216C441.05 158.586 441.122 158.958 441.295 159.287C441.468 159.616 441.734 159.887 442.06 160.066C442.386 160.244 442.757 160.322 443.128 160.291C443.498 160.259 443.851 160.118 444.141 159.887C444.432 159.656 444.648 159.344 444.763 158.99C444.877 158.636 444.884 158.257 444.784 157.899C444.683 157.541 444.479 157.221 444.198 156.978C443.916 156.736 443.569 156.582 443.2 156.536C442.951 156.505 442.697 156.524 442.455 156.592C442.213 156.66 441.987 156.775 441.791 156.932C441.594 157.088 441.431 157.283 441.31 157.503C441.189 157.724 441.114 157.966 441.088 158.216Z" fill="#263238"/>
<path d="M456.832 159.192C456.793 159.564 456.865 159.939 457.039 160.27C457.213 160.601 457.481 160.873 457.81 161.051C458.139 161.229 458.513 161.305 458.885 161.271C459.258 161.236 459.611 161.091 459.901 160.855C460.191 160.619 460.405 160.302 460.514 159.945C460.624 159.587 460.625 159.205 460.518 158.847C460.41 158.489 460.198 158.171 459.91 157.933C459.621 157.695 459.268 157.549 458.896 157.512C458.4 157.463 457.904 157.612 457.518 157.926C457.131 158.241 456.884 158.696 456.832 159.192Z" fill="#263238"/>
<path d="M459.408 151.944L463.248 155.144C463.479 154.647 463.554 154.092 463.462 153.552C463.371 153.012 463.118 152.513 462.736 152.12C462.251 151.788 461.684 151.596 461.097 151.565C460.51 151.533 459.925 151.665 459.408 151.944Z" fill="#E0E0E0"/>
<path d="M443.424 150.104L438.992 152.552C438.868 152.021 438.906 151.465 439.103 150.957C439.3 150.449 439.646 150.012 440.096 149.704C440.633 149.456 441.229 149.363 441.817 149.433C442.404 149.504 442.961 149.736 443.424 150.104Z" fill="#E0E0E0"/>
<path d="M369.456 237.576L363.488 234.6C361.636 233.676 360.095 232.23 359.056 230.44L357.184 227.24C355.891 225.054 353.99 223.291 351.712 222.168C348.301 220.482 345.118 218.369 342.24 215.88C341.637 216.843 341.384 217.985 341.524 219.112C341.664 220.24 342.188 221.285 343.008 222.072C344.23 223.196 345.529 224.234 346.896 225.176L344.032 225.896C341.97 226.424 339.794 226.296 337.808 225.528L329.632 222.328C329.395 222.232 329.136 222.203 328.884 222.243C328.631 222.283 328.395 222.391 328.199 222.556C328.003 222.72 327.856 222.935 327.773 223.176C327.69 223.418 327.675 223.678 327.728 223.928C328.472 227.556 329.842 231.026 331.776 234.184C332.661 235.694 333.861 236.996 335.294 238C336.726 239.005 338.359 239.69 340.08 240.008C344.256 240.792 348.288 241.4 350.576 241.736C351.889 241.92 353.164 242.314 354.352 242.904L363.12 247.256L369.456 237.576Z" fill="#FFA8A7"/>
<path d="M375.136 246.76C376.173 244.308 376.532 241.622 376.176 238.984L387.376 244.296C389.428 236.134 391.03 227.866 392.176 219.528C393.52 208.248 393.216 200.664 407.712 197L409.312 226.648C409.312 226.648 407.536 262.856 397.136 266.872C388.544 270.184 382.464 262.072 369.344 253.528C371.923 251.919 373.944 249.556 375.136 246.76Z" fill="#455A64"/>
<path d="M365.872 235.336L376.176 238.984C376.575 241.824 376.128 244.719 374.89 247.306C373.652 249.893 371.678 252.057 369.216 253.528C366.207 251.466 363.351 249.188 360.672 246.712C360.672 246.712 365.136 245.144 365.872 235.336Z" fill="#37474F"/>
<path d="M466.4 601.72L579.984 536.024L653.904 579.048L541.344 644.424L466.4 601.72Z" fill="#E6B5E4"/>
<path d="M466.4 691.176V601.72L541.344 644.424V734.44L466.4 691.176Z" fill="#2E4BB7"/>
<path d="M541.344 734.44L653.904 669.064V579.048L541.344 644.424V734.44Z" fill="#2E4BB7"/>
<path opacity="0.3" d="M541.344 734.44L653.904 669.064V579.048L541.344 644.424V734.44Z" fill="black"/>
<path d="M457.76 591.592L581.824 519.848L662.528 566.84L539.6 638.232L457.76 591.592Z" fill="#2E4BB7"/>
<path d="M457.76 603.192V591.592L539.6 638.232V650.44L457.76 603.192Z" fill="#2E4BB7"/>
<path d="M539.6 650.44L662.528 579.032V566.84L539.6 638.232V650.44Z" fill="#2E4BB7"/>
<path opacity="0.3" d="M457.76 603.192V591.592L539.6 638.232V650.44L457.76 603.192Z" fill="white"/>
<path opacity="0.2" d="M539.6 650.44L662.528 579.032V566.84L539.6 638.232V650.44Z" fill="black"/>
<g opacity="0.2">
<path d="M78.64 192L531.024 516.464L552.672 503.888L318.432 52.544L78.64 192Z" fill="#2E4BB7"/>
<path d="M531.024 516.464V535.84L78.64 426.4V192L531.024 516.464Z" fill="#2E4BB7"/>
</g>
<path d="M527.968 518.24L555.712 502.112L564.64 506.976L536.128 523.472L527.968 518.24Z" fill="#37474F"/>
<path d="M527.968 518.24V541.872L535.952 546.72L536.128 523.472L527.968 518.24Z" fill="#263238"/>
<path d="M486.112 552.384L574.848 501.072L632.576 534.688L544.656 585.76L486.112 552.384Z" fill="#455A64"/>
<path d="M543.648 527.744L576.384 508.816L597.696 521.216L565.248 540.064L543.648 527.744Z" fill="#263238"/>
<path d="M486.112 580.752V552.384L544.656 585.76V614.56L486.112 580.752Z" fill="#37474F"/>
<path d="M544.656 614.56L632.576 563.488V534.688L544.656 585.76V614.56Z" fill="#263238"/>
<path d="M537.232 597.168C537.504 597.343 537.732 597.579 537.898 597.856C538.065 598.134 538.165 598.446 538.192 598.768C538.192 599.376 537.76 599.632 537.232 599.328L511.424 584.432C511.153 584.256 510.926 584.02 510.759 583.743C510.593 583.466 510.492 583.154 510.464 582.832C510.464 582.224 510.896 581.984 511.424 582.288L537.232 597.168Z" fill="#263238"/>
<path d="M537.248 593.6C537.518 593.776 537.743 594.012 537.907 594.29C538.071 594.567 538.168 594.879 538.192 595.2C538.192 595.808 537.76 596.048 537.232 595.744L511.44 580.8C511.167 580.626 510.939 580.39 510.772 580.113C510.606 579.835 510.506 579.523 510.48 579.2C510.48 578.592 510.912 578.352 511.44 578.656L537.248 593.6Z" fill="#263238"/>
<path d="M537.216 600.784C537.488 600.959 537.716 601.195 537.882 601.472C538.049 601.75 538.149 602.062 538.176 602.384C538.176 602.992 537.744 603.248 537.216 602.944L511.408 588.048C511.139 587.87 510.913 587.634 510.746 587.357C510.58 587.08 510.478 586.769 510.448 586.448C510.448 585.84 510.896 585.6 511.424 585.904L537.216 600.784Z" fill="#263238"/>
<path d="M537.248 589.936C537.519 590.112 537.746 590.348 537.913 590.625C538.079 590.902 538.18 591.214 538.208 591.536C538.208 592.144 537.776 592.384 537.248 592.08L511.44 577.184C511.168 577.009 510.94 576.773 510.774 576.496C510.607 576.218 510.507 575.906 510.48 575.584C510.455 575.462 510.469 575.335 510.52 575.221C510.571 575.107 510.657 575.012 510.765 574.95C510.873 574.888 510.998 574.862 511.122 574.875C511.247 574.888 511.363 574.94 511.456 575.024L537.248 589.936Z" fill="#263238"/>
<path d="M552.08 597.168C551.808 597.343 551.58 597.579 551.414 597.856C551.247 598.134 551.147 598.446 551.12 598.768C551.12 599.376 551.552 599.632 552.08 599.328L587.504 578.816C587.776 578.641 588.004 578.405 588.17 578.128C588.337 577.85 588.437 577.538 588.464 577.216C588.464 576.608 588.032 576.368 587.504 576.672L552.08 597.168Z" fill="black"/>
<path d="M552 593.6C551.73 593.776 551.505 594.012 551.341 594.29C551.177 594.567 551.08 594.879 551.056 595.2C551.056 595.808 551.488 596.048 552.016 595.744L587.44 575.232C587.712 575.059 587.94 574.823 588.104 574.545C588.268 574.267 588.364 573.954 588.384 573.632C588.384 573.024 587.952 572.768 587.424 573.072L552 593.6Z" fill="black"/>
<path d="M552.096 600.784C551.822 600.957 551.592 601.191 551.425 601.469C551.258 601.747 551.159 602.061 551.136 602.384C551.136 602.992 551.568 603.248 552.096 602.944L587.52 582.432C587.791 582.256 588.018 582.02 588.185 581.743C588.351 581.466 588.452 581.154 588.48 580.832C588.48 580.224 588.048 579.984 587.504 580.288L552.096 600.784Z" fill="black"/>
<path d="M552 589.936C551.727 590.11 551.499 590.346 551.332 590.623C551.166 590.901 551.066 591.213 551.04 591.536C551.04 592.144 551.472 592.384 552 592.08L587.424 571.568C587.696 571.393 587.924 571.157 588.09 570.88C588.257 570.602 588.357 570.29 588.384 569.968C588.384 569.36 587.952 569.12 587.424 569.424L552 589.936Z" fill="black"/>
<path d="M593.28 573.424C593.008 573.599 592.78 573.835 592.614 574.112C592.447 574.39 592.347 574.702 592.32 575.024C592.32 575.632 592.752 575.888 593.28 575.584L628.704 555.2C628.975 555.024 629.202 554.788 629.369 554.511C629.535 554.234 629.636 553.922 629.664 553.6C629.664 552.992 629.232 552.752 628.704 553.056L593.28 573.424Z" fill="black"/>
<path d="M593.264 569.808C592.993 569.983 592.767 570.219 592.603 570.497C592.44 570.774 592.343 571.086 592.32 571.408C592.32 572.032 592.752 572.272 593.28 571.968L628.704 551.456C628.976 551.283 629.204 551.047 629.368 550.769C629.532 550.491 629.628 550.178 629.648 549.856C629.648 549.248 629.216 548.992 628.688 549.296L593.264 569.808Z" fill="black"/>
<path d="M593.296 577.04C593.022 577.213 592.792 577.447 592.625 577.725C592.458 578.003 592.359 578.317 592.336 578.64C592.336 579.248 592.768 579.504 593.296 579.2L628.8 558.736C629.071 558.56 629.298 558.324 629.465 558.047C629.631 557.77 629.732 557.458 629.76 557.136C629.76 556.528 629.328 556.288 628.784 556.592L593.296 577.04Z" fill="black"/>
<path d="M593.264 566.192C592.993 566.368 592.766 566.604 592.599 566.881C592.433 567.158 592.332 567.47 592.304 567.792C592.304 568.4 592.736 568.64 593.264 568.336L628.688 547.824C628.96 547.649 629.188 547.413 629.354 547.136C629.521 546.858 629.621 546.546 629.648 546.224C629.648 545.616 629.216 545.36 628.688 545.68L593.264 566.192Z" fill="black"/>
<path d="M274.992 645.504C281.411 651.884 289.413 656.44 298.176 658.704C300.688 659.344 303.648 660.112 304.576 662.544C305.504 664.976 303.92 667.344 301.968 668.944C298.686 671.166 294.686 672.069 290.768 671.472C286.922 670.85 283.162 669.776 279.568 668.272C275.951 666.787 272.143 665.817 268.256 665.392C266.412 665.382 264.569 665.275 262.736 665.072C261.819 664.962 260.935 664.664 260.139 664.196C259.344 663.728 258.653 663.1 258.112 662.352C258.112 651.152 261.024 647.088 261.024 647.088L274.992 645.504Z" fill="#37474F"/>
<path d="M275.2 640.528V648.144C270.08 653.744 261.952 650.016 260.96 647.04L260.704 640.528H275.2Z" fill="#8C4C4C"/>
<path d="M236.992 613.232C246.096 605.008 251.152 605.328 253.344 606.976C255.536 608.624 259.488 613.888 249.392 622.784C239.296 631.68 240.064 637.184 233.04 637.184C226.016 637.184 227.328 630.16 227.328 630.16C227.412 627.725 227.782 625.308 228.432 622.96L236.992 613.232Z" fill="#37474F"/>
<path d="M240.288 618.512V623.888C236 627.568 228.816 625.488 228.432 622.944L228.8 617.6L240.288 618.512Z" fill="#8C4C4C"/>
<path d="M282 469.008L285.936 562.528L275.2 640.528C269.488 644.192 260.704 640.528 260.704 640.528C259.536 616.528 254.304 582.496 258.432 564.288L250.528 514.016L248 554.4C247.552 578.112 241.408 603.36 240.32 618.512C238.455 619.235 236.45 619.529 234.456 619.371C232.461 619.213 230.528 618.608 228.8 617.6C225.248 586.064 218.224 569.072 224.96 546.544C220.272 504.096 216.272 477.744 222.16 466.992L282 469.008Z" fill="#455A64"/>
<path opacity="0.2" d="M249.088 504.432L250.592 514.032L249.776 526.832L246.752 506.848C244.097 506.498 241.551 505.568 239.295 504.125C237.038 502.682 235.127 500.76 233.696 498.496C238.259 501.712 243.547 503.751 249.088 504.432Z" fill="black"/>
<path d="M263.824 381.424L236.24 377.728C224.704 376.608 219.744 389.28 219.904 400.976C219.984 407.872 224.704 434.128 226.976 452.176C222.416 463.168 217.856 477.232 217.856 486.112C238.848 504.064 278.048 491.072 282.688 485.632C282.688 456.832 280.496 413.44 280.496 413.44L263.824 381.424Z" fill="#F5F5F5"/>
<path d="M278.528 348.144L282.832 355.632L278.112 357.376L278.528 348.144Z" fill="#632C2C"/>
<path d="M279.008 344.8C278.32 338.224 276.4 332 272.112 328.88C273.264 337.055 271.521 345.375 267.184 352.4C266.751 350.227 265.628 348.253 263.984 346.768C263.187 345.999 262.19 345.469 261.107 345.237C260.024 345.006 258.898 345.081 257.856 345.456C256.437 346.137 255.336 347.341 254.784 348.816C254.221 350.233 254.074 351.781 254.361 353.278C254.648 354.776 255.357 356.16 256.404 357.268C257.452 358.376 258.794 359.161 260.273 359.532C261.752 359.903 263.306 359.843 264.752 359.36C264.164 362.28 262.737 364.965 260.645 367.085C258.553 369.206 255.888 370.669 252.976 371.296C249.141 372.08 245.159 371.707 241.536 370.224L239.76 379.072C246.976 386.768 259.296 381.6 259.296 381.6L260.896 372.88C275.088 373.728 276.416 373.488 277.968 365.664C279.273 358.79 279.623 351.769 279.008 344.8Z" fill="#8C4C4C"/>
<path d="M280.704 329.04C279.428 326.153 277.565 323.563 275.235 321.434C272.905 319.305 270.158 317.684 267.168 316.672C261.17 314.681 254.775 314.192 248.544 315.248C244.649 315.686 240.86 316.796 237.344 318.528C233.808 320.325 230.93 323.192 229.12 326.72L228.384 320.672C227.644 320.844 226.96 321.203 226.4 321.716C225.839 322.229 225.42 322.878 225.184 323.6C224.985 324.372 224.982 325.182 225.175 325.956C225.368 326.73 225.75 327.443 226.288 328.032H225.728C223.228 328.032 220.753 328.525 218.444 329.482C216.135 330.439 214.037 331.841 212.27 333.61C210.504 335.378 209.103 337.477 208.148 339.787C207.192 342.097 206.702 344.572 206.704 347.072V379.376C211.658 379.372 216.407 377.401 219.908 373.897C223.409 370.393 225.376 365.642 225.376 360.688V353.264C227.716 358.766 231.416 363.583 236.128 367.264C237.796 368.479 239.614 369.474 241.536 370.224C245.159 371.707 249.141 372.08 252.976 371.296C255.888 370.669 258.553 369.206 260.645 367.085C262.737 364.965 264.164 362.28 264.752 359.36C263.306 359.843 261.752 359.903 260.273 359.532C258.794 359.161 257.452 358.376 256.404 357.268C255.357 356.16 254.648 354.776 254.361 353.278C254.074 351.781 254.221 350.233 254.784 348.816C255.336 347.341 256.437 346.137 257.856 345.456C258.898 345.081 260.024 345.006 261.107 345.237C262.19 345.469 263.187 345.999 263.984 346.768C265.628 348.253 266.751 350.227 267.184 352.4C271.521 345.375 273.264 337.055 272.112 328.88C276.4 332.08 278.32 338.224 279.008 344.8C280.572 342.518 281.546 339.884 281.842 337.134C282.138 334.383 281.747 331.602 280.704 329.04Z" fill="#263238"/>
<path d="M264.192 404.48L280.752 416.464C281.056 420.32 281.216 428.192 281.504 436.896C278.784 433.824 276.512 429.968 274.112 426.624C269.351 419.984 265.977 412.453 264.192 404.48Z" fill="#E6E6E6"/>
<path d="M355.44 359.28L336.064 415.424L296 393.2L315.168 337.68L355.44 359.28Z" fill="#2E4BB7"/>
<path d="M301.952 390.928L317.904 344.688L349.472 361.616L333.344 408.336L301.952 390.928Z" fill="white"/>
<path d="M323.472 348.112L341.008 357.312L341.776 354.976L338.368 351.984L328.768 347.152L324.384 346.336L323.472 348.112Z" fill="#455A64"/>
<path d="M328.768 347.152L329.52 345.376L338.896 350.4L338.368 351.984L328.768 347.152Z" fill="#37474F"/>
<path d="M324.08 342.448L345.28 353.84L346.192 351.632L324.8 340.4L324.08 342.448Z" fill="#455A64"/>
<path d="M329.808 343.024C331.664 337.184 342.736 342.688 340.576 348.672L329.808 343.024Z" fill="#37474F"/>
<path d="M293.136 404.592L307.92 423.792L333.616 398.512C335.053 397.101 335.972 395.246 336.224 393.248C337.456 383.648 340.112 376.816 343.52 378.016C345.664 378.768 342.912 388.112 342.912 388.112L346.112 386.272L349.84 375.456H351.536C352.422 375.459 353.285 375.735 354.007 376.248C354.728 376.761 355.274 377.485 355.568 378.32L357.168 382.944C358.113 385.684 358.157 388.654 357.293 391.42C356.429 394.187 354.704 396.604 352.368 398.32L346.72 402.496C345.895 403.134 345.191 403.915 344.64 404.8C335.725 418.49 325.639 431.381 314.496 443.328C313.242 444.598 311.585 445.391 309.81 445.572C308.035 445.753 306.252 445.311 304.768 444.32C289.04 433.92 276.048 416.352 276.048 416.352L293.136 404.592Z" fill="#8C4C4C"/>
<path d="M263.824 381.424L266.336 381.728C270.451 382.225 274.426 383.538 278.028 385.591C281.63 387.643 284.786 390.393 287.312 393.68L306.144 418.208C305.739 422.504 303.986 426.562 301.135 429.8C298.284 433.039 294.482 435.293 290.272 436.24L269.584 414.4C258.768 402.576 263.824 381.424 263.824 381.424Z" fill="#2E4BB7"/>
</svg>
